<?xml version="1.0" encoding="UTF-8" standalone="no"?>
<svg
   width="53.506535mm"
   height="57.573444mm"
   viewBox="0 -309.8602 53.506579 57.573484"
   version="1.1"
   id="svg352"
   sodipodi:docname="LogoFinal.svg"
   inkscape:version="1.2.2 (732a01da63, 2022-12-09)"
   xmlns:inkscape="http://www.inkscape.org/namespaces/inkscape"
   xmlns:sodipodi="http://sodipodi.sourceforge.net/DTD/sodipodi-0.dtd"
   xmlns="http://www.w3.org/2000/svg"
   xmlns:svg="http://www.w3.org/2000/svg">
  <defs
     id="defs356" />
  <sodipodi:namedview
     id="namedview354"
     pagecolor="#ffffff"
     bordercolor="#000000"
     borderopacity="0.25"
     inkscape:showpageshadow="2"
     inkscape:pageopacity="0.0"
     inkscape:pagecheckerboard="0"
     inkscape:deskcolor="#d1d1d1"
     inkscape:document-units="mm"
     showgrid="false"
     inkscape:zoom="0.66175722"
     inkscape:cx="-417.07138"
     inkscape:cy="585.56218"
     inkscape:window-width="1920"
     inkscape:window-height="991"
     inkscape:window-x="-9"
     inkscape:window-y="-9"
     inkscape:window-maximized="1"
     inkscape:current-layer="svg352" />
  <path
     style="fill:#000000;fill-rule:evenodd;stroke:none"
     d=""
     id="path344" />
  <path class="logo-p"
     style="fill:#c9b9a5;fill-rule:evenodd;stroke:none"
     d="m 27.06988,-302.25729 -0.24664,0.79471 -0.12387,0.46215 -0.0999,0.43525 -0.0912,0.47717 -0.0725,0.4783 -0.0381,0.31867 -0.0273,0.2875 0.59735,-0.0152 0.44352,-0.007 0.37609,-0.003 0.41278,-8.5e-4 0.52591,0.003 0.49906,0.007 0.42096,0.01 0.40097,0.012 0.46118,0.0174 0.43872,0.0207 0.29257,0.0177 0.43256,0.0324 0.35626,0.0321 0.43634,0.0461 0.51144,0.0636 0.35505,0.0502 0.47445,0.0749 0.52701,0.0939 0.31818,0.0621 0.33493,0.0699 0.57333,0.13034 0.63873,0.16058 0.2728,0.0763 0.24954,0.0764 0.30905,0.10355 0.2811,0.10302 0.21265,0.0837 0.16098,0.0667 0.21954,0.0944 0.18259,0.0873 0.16345,0.0858 0.14905,0.085 0.13327,0.0817 0.13238,0.087 0.10666,0.0744 0.0963,0.0707 0.10684,0.0826 0.11813,0.0968 0.1091,0.0948 0.0899,0.0823 0.0979,0.0942 0.0897,0.0909 0.14618,0.16748 0.10879,0.14209 0.11203,0.16449 0.10812,0.18124 0.0995,0.19388 0.0998,0.23273 0.0698,0.19928 0.062,0.22269 0.0406,0.19192 0.0328,0.22217 0.0185,0.23199 10e-4,0.29428 -0.0305,0.47632 -0.0585,0.42539 -0.0718,0.35397 -0.0977,0.36801 -0.14713,0.43445 -0.1961,0.4595 -0.22739,0.43402 -0.19391,0.31513 -0.44769,0.61862 -0.45685,0.55243 -0.40033,0.43298 -0.47327,0.46042 -0.52911,0.45847 -0.54382,0.4241 -0.92227,0.68063 -0.89081,0.61759 -1.04666,0.6788 -0.84842,0.51508 -0.78308,0.44891 -0.8588,0.46429 -1.28052,0.64121 -1.04852,0.48413 -1.16559,0.51608 -1.04355,0.45413 -1.0574,0.41422 -0.79486,0.30756 -0.95856,0.34903 -0.88589,0.29177 -0.82663,0.24823 -0.90287,0.23896 -0.59286,0.094 -0.0218,-2.85773 -0.067,-2.65158 -0.0578,-4.2283 -0.0148,-1.12341 0.006,-1.01117 0.0263,-1.344 0.0544,-1.48874 0.0576,-1.10635 0.17887,-2.43701 1.35119,-0.15906 1.35175,-0.12671 0.0291,-0.56796 0.0506,-0.6105 0.0691,-0.59409 0.0812,-0.54816 0.0906,-0.50897 0.0924,-0.44925 c -1.74435,0.12998 -3.49197,0.34992 -5.21527,0.65772 -4.79806,0.98187 -9.4791202,2.46612 -13.9663102,4.42846 -1.01968,0.44495 -2.00857,0.95749 -2.95996,1.53418 -0.53647,0.30576 -1.01855002,0.69861 -1.42627002,1.16236 -0.26666,0.29733 -0.36779,0.70889 -0.26929,1.09594 0.0939,0.70905 0.58951,1.29908 1.27173002,1.51392 0.37119,0.0652 0.75333,0.0114 1.09204,-0.15381 0.21601,-0.0879 0.42753,-0.18637 0.63379,-0.29516 1.14045,-0.6258 2.27124,-1.26386 3.39649,-1.91651 l 0.43896,-0.24365 c 0.76404,-0.44534 1.56891,-0.81668 2.40357,-1.10889 2.5786402,-0.9389 5.1983902,-1.76111 7.8510702,-2.46411 l -0.001,0.22412 c -0.0457,1.73212 -0.0906,3.38227 -0.13989,5.11524 l -0.0151,1.22387 c -0.006,3.00962 0.0453,6.01947 0.15479,9.0271 l 0.0823,2.57764 0.13965,4.29419 c 0.19739,5.45798 0.31238,10.91504 0.34497,16.37646 l 0.003,0.5691 c -0.001,1.42077 0.12354,2.83899 0.37232,4.23779 l 0.0159,0.12891 c 0.006,0.0502 0.0105,0.10075 0.0125,0.15136 l 0.0947,0.39722 c 0.0801,0.32251 0.23438,0.62204 0.45044,0.87451 0.25104,0.28017 0.61301,0.43529 0.98902,0.42383 l 0.24096,-0.01 c 0.83274,-0.0726 1.60504,-0.4628 2.15747,-1.09009 0.32682,-0.40553 0.42935,-0.94771 0.2732,-1.44458 -0.16877,-0.58675 -0.36032,-1.16669 -0.57422,-1.73853 l -0.10645,-0.39282 c -0.21206,-0.95663 -0.31112,-1.93481 -0.29516,-2.91455 l -0.002,-0.87939 c -0.0374,-5.30756 -0.17145,-10.61301 -0.4021,-15.91577 0.9469,-0.31449 1.88812,-0.64496 2.8233,-0.99134 0.97632,-0.3616 1.94602,-0.74051 2.90866,-1.13647 2.30487,-0.94815 4.56922,-1.9943 6.78684,-3.13587 2.23098,-1.15243 4.33654,-2.53292 6.28296,-4.11938 1.12387,-0.89594 2.08999,-1.9737 2.85815,-3.18848 1.17755,-1.8974 1.68732,-4.13348 1.44849,-6.35376 -0.19815,-1.33185 -0.88163,-2.54358 -1.91895,-3.4021 -0.82303,-0.68112 -1.75262,-1.22207 -2.75146,-1.60107 -1.66791,-0.64478 -3.40848,-1.08292 -5.18286,-1.30469 -2.36829,-0.3049 -4.71827,-0.42322 -7.10505,-0.35153"
     id="path346" />
  <path class="logo-d"
     style="fill:#7b664a;fill-rule:evenodd;stroke:none"
     d="m 26.65176,-278.80041 c 0.002,0.24182 0.004,0.48355 0.005,0.72537 0.0276,2.20804 0.007,4.41644 -0.0627,6.62353 1.24426,-0.52105 2.43786,-1.15566 3.56567,-1.89575 2.77914,-1.80926 5.46051,-3.76425 8.03296,-5.85693 2.63717,-2.15695 5.08145,-4.53921 7.30542,-7.12012 1.25479,-1.43625 2.34704,-3.00656 3.25708,-4.68261 1.2247,-2.30106 1.80758,-4.88926 1.6875,-7.49317 -0.0714,-1.00198 -0.38001,-1.97256 -0.90039,-2.83179 -0.55722,-0.88195 -1.30417,-1.62875 -2.18628,-2.18579 -0.83582,-0.53583 -1.73431,-0.96685 -2.67529,-1.28344 -2.0564,-0.66211 -4.16639,-1.14463 -6.30616,-1.44214 -4.16122,-0.57569 -8.3609,-0.82581 -12.56103,-0.74805 -2.62802,0.11124 -5.24802,0.36707 -7.8479,0.76636 -0.91657,0.0918 -1.82358,0.26269 -2.71069,0.51074 l -0.53321,0.13794 c -0.32382,0.11172 -0.65381,0.20483 -0.98828,0.27881 -0.36249,0.1264 -0.76669,0.0128 -1.01025,-0.28394 -0.53281,-0.61172 -0.83539,-1.38971 -0.85596,-2.20068 l 0.0283,-0.16016 c 0.0856,-0.19607 0.23605,-0.35717 0.42578,-0.45605 0.36755,-0.20716 0.77298,-0.33866 1.19214,-0.38672 0.99664,-0.13855 1.99579,-0.26788 2.99487,-0.3877 3.42819,-0.46878 6.88517,-0.69778 10.34522,-0.6853 3.98181,-0.0302 7.95977,0.25113 11.8977,0.84155 2.49634,0.38092 4.95252,0.98957 7.33789,1.81836 1.52555,0.51575 2.95468,1.28137 4.22925,2.26563 1.76086,1.36084 2.89246,3.38022 3.13379,5.59253 0.2027,2.47772 -0.1651,4.96878 -1.0752,7.28222 -0.74453,1.87665 -1.75546,3.63651 -3.00146,5.2251 -1.58246,2.05075 -3.32104,3.97617 -5.2002,5.75903 -3.98623,3.80246 -8.23373,7.32151 -12.71118,10.53125 -1.71975,1.25702 -3.54449,2.36362 -5.4541,3.30762 -0.0566,0.21689 -0.13818,0.42649 -0.24316,0.62451 -0.24887,0.49805 -0.76319,0.80869 -1.31983,0.79712 -0.23175,0.0167 -0.46463,-5.2e-4 -0.6914,-0.051 -0.25577,-0.0483 -0.4628,-0.23654 -0.53516,-0.48657 -0.0806,-0.37272 -0.0887,-0.75754 -0.0239,-1.13331 l 0.073,-0.81103 c 0.22327,-1.90732 0.3664,-3.82315 0.42896,-5.74243 0.0257,-1.20871 0.041,-2.41782 0.045,-3.62671 l 0.61755,-0.23135 0.43491,-0.1662 0.5069,-0.1969 0.59295,-0.23502 z"
     id="path348" />
  <path class="logo-d"
     style="fill:#7b664a;fill-rule:evenodd;stroke:none"
     d="m 26.61587,-282.24991 -0.64541,0.25605 -0.41199,0.15817 -0.40546,0.15539 -0.40115,0.15674 -0.37708,0.14164 -0.65054,0.23159 c -0.008,-0.60019 -0.0196,-1.20034 -0.0333,-1.80044 l -0.0274,-1.44873 c -0.11017,-3.43836 -0.18683,-6.87827 -0.22998,-10.31812 -0.0374,-1.39609 -0.0273,-2.7933 0.0303,-4.18872 0.0587,-1.51242 0.3039,-3.01178 0.72999,-4.46411 0.15249,-0.45901 0.43399,-0.86444 0.81079,-1.16772 0.65243,-0.44205 1.48599,-0.51569 2.20581,-0.19483 0.24945,0.0864 0.41818,0.32001 0.42187,0.58399 -0.11697,0.47158 -0.25302,0.93832 -0.40771,1.39892 l -0.27369,0.87183 c -0.34362,1.05447 -0.54757,2.14938 -0.60668,3.25683 -0.0138,1.40613 -0.008,2.81201 0.0178,4.21802 l 0.0212,1.31567 c 0.10788,3.61207 0.18539,7.22465 0.2326,10.83783 z"
     id="path350" />
</svg>
